# xmcd
#
# Track frame offsets: 
#        150
#        25978
#        124467
#        180816
#        235031
#
# Disc length: 3919 seconds
#
# Revision: 0
# Processed by: cddbd v1.5.2PL0 Copyright (c) Steve Scherf et al.
# Submitted via: ExactAudioCopy v0.99pb4
#
DISCID=350f4d05
DTITLE=Charalambides - Electricity Ghost
DYEAR=2007
DGENRE=Avantgarde
TTITLE0=Electricity Ghost I
TTITLE1=Holy Electric
TTITLE2=Electricity Ghost II
TTITLE3=Drowning Right
TTITLE4=Electricity Ghost III
EXTD=
EXTT0=
EXTT1=
EXTT2=
EXTT3=
EXTT4=
PLAYORDER=
